<?xml version="1.0" standalone="no"?>
<!DOCTYPE svg PUBLIC "-//W3C//DTD SVG 20010904//EN"
 "http://www.w3.org/TR/2001/REC-SVG-20010904/DTD/svg10.dtd">
<svg version="1.0" xmlns="http://www.w3.org/2000/svg"
 width="512.000000pt" height="512.000000pt" viewBox="0 0 512.000000 512.000000"
 preserveAspectRatio="xMidYMid meet">

<g transform="translate(0.000000,512.000000) scale(0.100000,-0.100000)"
fill="#000000" stroke="none">
<path d="M1405 4943 c-603 -79 -1082 -445 -1299 -995 -155 -393 -135 -877 51
-1248 l48 -95 380 -3 380 -2 395 684 c217 377 398 682 401 678 3 -4 120 -355
260 -780 194 -592 256 -769 264 -758 6 8 137 238 290 511 241 427 281 493 292
479 7 -10 117 -196 245 -415 l232 -398 261 -3 c288 -3 301 -6 346 -70 35 -49
39 -142 7 -187 -12 -19 -36 -44 -51 -55 -28 -20 -39 -21 -394 -21 l-365 0
-141 238 c-77 130 -144 234 -148 230 -5 -5 -156 -268 -338 -586 l-329 -578
-262 787 c-169 505 -266 782 -271 773 -4 -8 -118 -205 -252 -439 l-244 -425
-347 -5 -346 -5 1045 -1045 1045 -1045 1103 1105 c1060 1062 1106 1109 1179
1220 85 129 142 239 182 350 211 586 57 1245 -390 1670 -458 435 -1121 556
-1705 311 -95 -40 -237 -121 -311 -177 l-56 -44 -63 47 c-269 198 -600 305
-934 301 -71 0 -143 -3 -160 -5z"/>
</g>
</svg>
