<?xml version="1.0" standalone="no"?>
<!DOCTYPE svg PUBLIC "-//W3C//DTD SVG 20010904//EN"
 "http://www.w3.org/TR/2001/REC-SVG-20010904/DTD/svg10.dtd">
<svg version="1.0" xmlns="http://www.w3.org/2000/svg"
 width="512.000000pt" height="512.000000pt" viewBox="0 0 512.000000 512.000000"
 preserveAspectRatio="xMidYMid meet">

<g transform="translate(0.000000,512.000000) scale(0.100000,-0.100000)"
fill="#000000" stroke="none">
<path d="M1450 5109 c-65 -13 -147 -58 -200 -109 -228 -224 -138 -606 167
-700 208 -64 438 46 513 247 117 314 -149 627 -480 562z"/>
<path d="M3773 4725 c-79 -22 -131 -51 -188 -109 -277 -277 -42 -744 350 -694
218 28 381 249 345 470 -38 238 -277 395 -507 333z"/>
<path d="M955 4193 c-100 -22 -191 -103 -215 -192 -5 -20 -52 -319 -105 -666
-52 -346 -97 -640 -100 -652 l-5 -23 257 0 258 1 -70 37 c-127 67 -183 128
-215 232 l-21 65 35 359 c20 197 37 360 39 362 2 2 13 -74 26 -169 12 -94 35
-263 51 -374 40 -283 11 -250 380 -430 518 -254 525 -257 608 -214 122 63 148
212 53 305 -25 24 -131 81 -341 182 -168 81 -306 148 -307 148 -1 1 -20 137
-43 301 -22 165 -42 311 -45 325 l-5 25 14 -25 c7 -14 58 -132 112 -264 l97
-238 71 -33 c274 -127 512 -250 550 -285 l43 -40 126 0 126 0 -19 -42 c-50
-111 8 -239 124 -273 63 -19 726 -22 791 -4 66 18 90 43 197 200 56 82 104
149 108 149 3 0 22 -189 41 -421 l36 -421 -159 -350 -158 -351 -131 -571 c-71
-314 -130 -593 -130 -621 -1 -94 44 -164 129 -202 89 -41 180 -24 250 48 17
18 39 51 47 73 8 23 71 286 139 586 l124 545 179 395 179 395 57 3 c34 2 57
-1 57 -7 0 -6 -27 -183 -60 -393 -33 -211 -61 -408 -61 -438 -1 -48 23 -118
186 -550 102 -272 195 -515 206 -540 27 -60 54 -88 114 -116 86 -41 170 -28
241 38 53 49 78 110 72 176 -3 28 -78 243 -187 531 l-182 484 45 286 c27 171
41 287 35 289 -5 2 -31 18 -57 36 -97 67 -157 180 -156 296 0 42 22 168 63
356 l63 291 -146 256 c-80 141 -146 259 -146 261 0 4 374 -375 434 -441 l47
-51 -71 -329 c-45 -207 -69 -340 -66 -361 9 -57 51 -118 99 -141 47 -23 110
-27 154 -10 36 13 89 64 102 98 20 48 171 771 171 814 -1 23 -9 56 -18 74 -9
17 -133 151 -274 297 -184 189 -258 272 -258 288 -1 61 -75 165 -143 199 -71
37 -120 38 -437 8 -339 -31 -372 -40 -452 -121 -24 -24 -133 -177 -243 -341
l-199 -297 -183 0 c-101 0 -183 3 -183 8 1 4 7 18 15 32 32 56 14 161 -39 218
-50 56 -57 57 -400 62 l-320 5 -151 223 -150 223 -1 77 c0 93 -30 160 -96 216
-54 46 -97 58 -343 96 -197 30 -221 32 -260 23z"/>
<path d="M52 2474 c-21 -14 -22 -22 -22 -158 0 -97 4 -146 12 -154 9 -9 226
-12 913 -12 965 0 965 0 1038 -50 19 -13 50 -46 68 -73 l34 -50 3 -748 2 -749
-111 0 c-111 0 -111 0 -105 22 4 13 16 309 28 658 l22 635 -44 93 -43 92 -273
0 c-197 0 -274 -3 -274 -11 0 -6 31 -71 69 -143 l70 -131 -20 -574 c-12 -371
-16 -586 -10 -607 l9 -34 -268 0 -269 0 23 67 c13 38 101 288 195 556 121 346
171 500 170 530 0 23 -19 110 -43 192 l-43 150 -257 3 c-249 2 -257 2 -251
-17 3 -10 25 -86 49 -168 l43 -150 -175 -494 c-173 -488 -175 -495 -176 -581
l-1 -87 -168 -3 -169 -3 -24 -28 c-23 -27 -24 -32 -24 -211 l0 -183 26 -24 26
-24 1280 0 1280 0 24 28 c23 27 24 32 24 207 0 175 -1 180 -24 207 -23 27 -29
28 -125 31 l-101 4 0 736 c-1 817 0 807 -66 940 -48 99 -160 214 -252 260
l-63 31 -44 -33 c-68 -52 -127 -71 -225 -71 -85 0 -85 0 -238 73 l-154 72
-662 0 c-583 0 -664 -2 -684 -16z"/>
</g>
</svg>
