<?xml version="1.0" standalone="no"?>
<!DOCTYPE svg PUBLIC "-//W3C//DTD SVG 20010904//EN"
 "http://www.w3.org/TR/2001/REC-SVG-20010904/DTD/svg10.dtd">
<svg version="1.0" xmlns="http://www.w3.org/2000/svg"
 width="512.000000pt" height="512.000000pt" viewBox="0 0 512.000000 512.000000"
 preserveAspectRatio="xMidYMid meet">

<g transform="translate(0.000000,512.000000) scale(0.100000,-0.100000)"
fill="#000000" stroke="none">
<path d="M3910 4604 c-465 -270 -529 -304 -648 -344 -180 -60 -446 -78 -628
-43 -49 10 -136 18 -194 18 -93 0 -111 -3 -162 -27 -215 -101 -301 -363 -184
-563 59 -100 174 -177 284 -190 112 -14 135 -50 95 -152 -21 -54 -26 -86 -26
-153 -1 -113 25 -180 101 -261 126 -137 307 -172 472 -92 98 48 170 142 215
283 29 91 101 237 161 326 70 106 197 241 295 314 42 31 317 195 612 366 295
170 537 312 537 315 0 6 -517 440 -522 438 -2 0 -185 -106 -408 -235z m-1505
-569 c40 -39 37 -74 -11 -127 -36 -40 -41 -65 -23 -117 8 -24 8 -39 -1 -62
-15 -35 -37 -49 -79 -49 -59 0 -91 61 -91 173 0 65 22 117 67 158 60 56 100
63 138 24z"/>
<path d="M1556 4659 l-26 -20 0 -258 c0 -210 3 -260 15 -278 32 -46 113 -36
135 16 7 19 10 107 8 275 -3 247 -3 248 -27 267 -30 25 -72 24 -105 -2z"/>
<path d="M762 4317 c-14 -14 -22 -36 -22 -56 0 -30 18 -51 181 -210 100 -97
192 -182 205 -189 53 -28 125 22 111 79 -3 13 -91 108 -195 212 -173 172 -191
187 -223 187 -24 0 -43 -7 -57 -23z"/>
<path d="M421 3524 c-26 -33 -27 -75 -2 -105 19 -24 20 -24 279 -27 l260 -3
28 24 c22 19 28 32 27 63 -2 72 -8 74 -308 74 l-264 0 -20 -26z"/>
<path d="M1165 3072 c-167 -58 -273 -188 -282 -346 -4 -54 2 -96 22 -176 67
-262 37 -548 -84 -805 -29 -61 -460 -809 -536 -931 -13 -20 1 -38 206 -273
121 -138 224 -251 227 -251 4 0 68 105 142 233 543 942 528 918 655 1042 134
131 294 230 523 326 130 55 177 84 232 146 171 195 108 494 -128 610 -70 35
-83 38 -161 38 -64 0 -104 -6 -158 -24 -109 -37 -128 -23 -152 103 -14 77 -43
134 -96 194 -100 111 -277 160 -410 114z m205 -175 c60 -24 78 -53 66 -101 -9
-36 -63 -60 -101 -46 -50 19 -82 12 -130 -30 -52 -45 -80 -50 -119 -19 -41 32
-37 87 12 141 71 78 166 98 272 55z m-413 -1759 c44 -41 34 -72 -103 -310
-132 -229 -155 -256 -208 -242 -14 3 -33 15 -42 25 -36 40 -24 74 106 299 69
118 133 223 142 232 25 25 77 23 105 -4z"/>
<path d="M3270 2527 c-49 -25 -60 -88 -23 -129 15 -16 42 -18 284 -18 l268 0
20 26 c28 35 26 67 -3 101 l-24 28 -249 3 c-186 2 -254 -1 -273 -11z"/>
<path d="M3025 2055 c-16 -15 -25 -35 -25 -56 0 -29 22 -55 188 -221 164 -165
191 -188 219 -188 45 0 62 9 79 41 12 25 12 33 0 61 -7 18 -95 113 -193 211
-158 155 -184 177 -212 177 -21 0 -41 -9 -56 -25z"/>
<path d="M2603 1850 c-51 -21 -54 -38 -51 -315 3 -256 3 -257 27 -276 32 -26
77 -24 106 6 l25 24 0 259 c0 255 0 259 -22 279 -29 26 -57 34 -85 23z"/>
</g>
</svg>
